<svg id="color" enable-background="new 0 0 24 24" height="512" viewBox="0 0 24 24" width="512" xmlns="http://www.w3.org/2000/svg"><path d="m20.819 17c-1.074 0-2.068-.521-2.66-1.395l-3.639-5.372h-5.027l-3.639 5.372c-.592.874-1.586 1.395-2.66 1.395-.913 0-1.784-.383-2.389-1.05-.582-.643-.868-1.501-.784-2.354l.745-7.569c-.003-2.739 2.351-5.027 5.245-5.027 1.61 0 3.119.716 4.111 1.933h3.77c.992-1.217 2.501-1.933 4.111-1.933 2.88 0 5.226 2.267 5.247 5.062l.742 7.534c.084.854-.202 1.712-.784 2.354-.605.667-1.476 1.05-2.389 1.05zm2.431-10.9h.01z" fill="#2196f3"/><path d="m6.011 1c-2.894 0-5.248 2.288-5.244 5.027l-.745 7.569c-.084.854.202 1.712.784 2.354.605.667 1.475 1.05 2.388 1.05 1.074 0 2.068-.521 2.66-1.395l3.639-5.372h2.507v-7.3h-1.878c-.993-1.217-2.501-1.933-4.111-1.933z" fill="#1d83d4"/><g fill="#fafafa"><path d="m20.75 7.5c-.257 0-.512-.097-.708-.292-.39-.39-.39-1.024 0-1.415.391-.391 1.024-.391 1.415 0 .39.39.39 1.024 0 1.415-.195.195-.45.292-.707.292z"/><path d="m16.25 7.5c-.257 0-.512-.097-.708-.292-.39-.39-.39-1.024 0-1.415.391-.391 1.024-.391 1.415 0 .39.39.39 1.024 0 1.415-.195.195-.45.292-.707.292z"/><path d="m5.507 9c-.414 0-.75-.336-.75-.75v-3.5c0-.414.336-.75.75-.75s.75.336.75.75v3.5c0 .414-.336.75-.75.75z"/><path d="m7.257 7.25h-3.5c-.414 0-.75-.336-.75-.75s.336-.75.75-.75h3.5c.414 0 .75.336.75.75s-.336.75-.75.75z"/></g><path d="m5.507 7.25h-.75v1c0 .414.336.75.75.75zm0-3.25c-.414 0-.75.336-.75.75v1h.75z" fill="#dadada"/><path d="m5.507 5.75h-.75-1c-.414 0-.75.336-.75.75s.336.75.75.75h1 .75z" fill="#dadada"/><path d="m18.5 5.25c-.257 0-.512-.097-.708-.292-.39-.39-.39-1.024 0-1.415.391-.391 1.024-.391 1.415 0 .39.39.39 1.024 0 1.415-.195.195-.45.292-.707.292z" fill="#fafafa"/><path d="m18.5 9.75c-.257 0-.512-.097-.708-.292-.39-.39-.39-1.024 0-1.415.391-.391 1.024-.391 1.415 0 .39.39.39 1.024 0 1.415-.195.195-.45.292-.707.292z" fill="#fafafa"/><path d="m18.5 3.25c-.256 0-.512.098-.708.293-.39.39-.39 1.024 0 1.415.196.195.451.292.708.292z" fill="#dadada"/><path d="m18.5 7.75c-.256 0-.512.098-.708.293-.39.39-.39 1.024 0 1.415.196.195.451.292.708.292z" fill="#dadada"/><path d="m16.25 5.5c-.256 0-.512.098-.708.293-.39.39-.39 1.024 0 1.415.196.195.451.292.708.292z" fill="#dadada"/><path d="m20.75 5.5c-.256 0-.512.098-.708.293-.39.39-.39 1.024 0 1.415.196.195.451.292.708.292z" fill="#dadada"/><path d="m11.082 22.98c-.404-.093-.655-.495-.563-.899l1.5-6.5c.093-.403.495-.659.899-.562.404.093.655.495.562.899l-1.5 6.5c-.094.413-.509.656-.898.562z" fill="#607d8b"/><path d="m15.25 22c-.205 0-.409-.084-.558-.248-.277-.309-.252-.782.056-1.06l1.881-1.692-1.881-1.692c-.308-.277-.333-.751-.056-1.06.279-.308.751-.332 1.06-.056l2.5 2.25c.158.143.248.345.248.558s-.09.415-.248.558l-2.5 2.25c-.144.129-.323.192-.502.192z" fill="#607d8b"/><path d="m8.75 22c-.179 0-.358-.063-.502-.192l-2.5-2.25c-.158-.143-.248-.345-.248-.558s.09-.415.248-.558l2.5-2.25c.309-.275.781-.251 1.06.056.277.309.252.782-.056 1.06l-1.881 1.692 1.881 1.692c.308.277.333.751.056 1.06-.149.164-.353.248-.558.248z" fill="#607d8b"/><path d="m12.77 19h-1.54l-.711 3.081c-.093.404.159.807.563.899.056.014.113.02.169.02.333 0 .649-.229.73-.582z" fill="#546d79"/><path d="m18.5 19h-1.871l-1.881 1.692c-.308.277-.333.751-.056 1.06.149.164.353.248.558.248.179 0 .358-.063.502-.192l2.5-2.25c.158-.143.248-.345.248-.558z" fill="#546d79"/><path d="m7.371 19h-1.871c0 .213.09.415.248.558l2.5 2.25c.144.129.323.192.502.192.205 0 .409-.084.558-.248.277-.309.252-.782-.056-1.06z" fill="#546d79"/></svg>